HIERARCHY
ROOT Hips
{
	OFFSET 0.00 0.00 0.00
	CHANNELS 6 Xposition Yposition Zposition Xrotation Yrotation Zrotation
	JOINT Spine
	{
		OFFSET 0.00000 1.15266 1.72900
		CHANNELS 3 Xrotation Yrotation Zrotation
		JOINT Spine1
		{
			OFFSET 0.00000 0.40032 2.27031
			CHANNELS 3 Xrotation Yrotation Zrotation
			JOINT Spine2
			{
				OFFSET 0.00000 0.20092 2.29656
				CHANNELS 3 Xrotation Yrotation Zrotation
				JOINT Spine3
				{
					OFFSET 0.00000 0.00000 2.30533
					CHANNELS 3 Xrotation Yrotation Zrotation
					JOINT Neck
					{
						OFFSET 0.00000 -0.86449 6.05149
						CHANNELS 3 Xrotation Yrotation Zrotation
						JOINT Head
						{
							OFFSET 0.00000 -0.55043 3.12167
							CHANNELS 3 Xrotation Yrotation Zrotation
							End Site
							{
								OFFSET 0.00000 0.00000 3.73175
							}
						}
					}
					JOINT RightShoulder
					{
						OFFSET -0.78828 -1.31380 4.25672
						CHANNELS 3 Xrotation Yrotation Zrotation
						JOINT RightArm
						{
							OFFSET -3.91513 0.00000 0.00000
							CHANNELS 3 Xrotation Yrotation Zrotation
							JOINT RightForeArm
							{
								OFFSET -6.91491 0.00000 0.00000
								CHANNELS 3 Xrotation Yrotation Zrotation
								JOINT RightHand
								{
									OFFSET -6.09622 0.00000 0.00000
									CHANNELS 3 Xrotation Yrotation Zrotation
									JOINT RightHandEnd
									{
										OFFSET -1.74995 0.00000 0.00000
										CHANNELS 3 Xrotation Yrotation Zrotation
										End Site
										{
											OFFSET -1.74995 0.00000 0.00000
										}
									}
									JOINT RightHandThumb1
									{
										OFFSET -0.69998 -1.16663 -0.46665
										CHANNELS 3 Yrotation Xrotation Zrotation
										End Site
										{
											OFFSET -1.69032 -0.45292 0.00000
										}
									}
								}
							}
						}
					}
					JOINT LeftShoulder
					{
						OFFSET 0.78828 -1.31380 4.25672
						CHANNELS 3 Xrotation Yrotation Zrotation
						JOINT LeftArm
						{
							OFFSET 3.91513 0.00000 0.00000
							CHANNELS 3 Xrotation Yrotation Zrotation
							JOINT LeftForeArm
							{
								OFFSET 6.91491 0.00000 0.00000
								CHANNELS 3 Xrotation Yrotation Zrotation
								JOINT LeftHand
								{
									OFFSET 6.09622 0.00000 0.00000
									CHANNELS 3 Xrotation Yrotation Zrotation
									JOINT LeftHandEnd
									{
										OFFSET 1.74995 0.00000 0.00000
										CHANNELS 3 Xrotation Yrotation Zrotation
										End Site
										{
											OFFSET 1.74995 0.00000 0.00000
										}
									}
									JOINT LeftHandThumb1
									{
										OFFSET 0.69998 -1.16663 -0.46665
										CHANNELS 3 Yrotation Xrotation Zrotation
										End Site
										{
											OFFSET 1.69032 -0.45292 0.00000
										}
									}
								}
							}
						}
					}
				}
			}
		}
	}
	JOINT RightUpLeg
	{
		OFFSET -2.33857 0.00000 -0.68318
		CHANNELS 3 Xrotation Yrotation Zrotation
		JOINT RightLeg
		{
			OFFSET 0.00000 0.00000 -10.74496
			CHANNELS 3 Xrotation Yrotation Zrotation
			JOINT RightFoot
			{
				OFFSET 0.00000 0.00000 -10.93085
				CHANNELS 3 Xrotation Yrotation Zrotation
				JOINT RightToeBase
				{
					OFFSET 0.00000 -4.08727 -1.48765
					CHANNELS 3 Xrotation Yrotation Zrotation
					End Site
					{
						OFFSET 0.00000 -1.89187 -0.00000
					}
				}
			}
		}
	}
	JOINT LeftUpLeg
	{
		OFFSET 2.33857 0.00000 -0.68318
		CHANNELS 3 Xrotation Yrotation Zrotation
		JOINT LeftLeg
		{
			OFFSET 0.00000 0.00000 -10.74496
			CHANNELS 3 Xrotation Yrotation Zrotation
			JOINT LeftFoot
			{
				OFFSET 0.00000 0.00000 -10.93085
				CHANNELS 3 Xrotation Yrotation Zrotation
				JOINT LeftToeBase
				{
					OFFSET 0.00000 -4.08727 -1.48765
					CHANNELS 3 Xrotation Yrotation Zrotation
					End Site
					{
						OFFSET 0.00000 -1.89187 -0.00000
					}
				}
			}
		}
	}
}
MOTION
Frames: 12
Frame Time:	0.02
 -11.6568 1.9687 22.5868 -5.8330 3.4280 162.1231 -5.1903 0.6613 0.6694 -2.9570 -0.8603 -0.0508 7.0603 -8.0338 6.9661 -0.2434 -0.2096 2.1763 -6.2552 -5.5503 -2.7141 15.9812 -1.8179 -9.7010 -12.9066 0.0646 -4.1776 -27.9795 -3.3283 37.2572 -0.0001 0.0001 124.1155 -14.6104 8.1226 16.7579 -0.0000 0.0000 -0.0000 -0.0000 0.0000 0.0000 -12.3851 2.5716 3.8906 -20.4688 -8.3453 -32.1243 -0.0000 0.0000 5.0726 0.2599 -3.6420 8.1446 0.0000 0.0000 0.0000 0.0000 -0.0000 -0.0000 -17.7996 28.3820 6.3516 13.7435 0.0000 0.0000 -3.3616 -27.9554 15.5921 4.1285 0.0000 0.0000 5.2428 -22.9591 15.5877 -1.0098 0.0000 -0.0000 -6.6345 26.7155 10.5075 1.6505 0.0000 0.0000
 -11.6527 1.9459 22.5801 -5.6453 3.4595 161.9188 -5.0513 0.3473 0.6688 -2.7960 -1.3419 -0.1055 6.8949 -7.2645 7.4849 -0.1808 -0.1186 2.2104 -6.0695 -5.1993 -2.6449 15.8252 -1.9853 -9.6131 -12.8426 0.8642 -3.8439 -27.5642 -4.0841 36.5562 -0.0001 0.0001 124.5128 -13.9169 7.9912 16.6406 0.0000 0.0000 0.0000 0.0000 -0.0000 0.0000 -12.4635 2.3002 3.9064 -20.7221 -8.0548 -32.2824 -0.0000 0.0000 5.1444 0.0659 -3.7536 8.4493 0.0000 -0.0000 -0.0000 -0.0000 0.0000 -0.0000 -18.0801 28.3951 6.4731 14.1964 0.0000 0.0000 -3.4452 -27.8688 15.8911 4.0237 0.0000 0.0000 5.3415 -22.9181 15.7262 -0.7752 0.0000 -0.0000 -6.7898 26.8018 10.4533 1.5816 0.0000 0.0000
 -11.6261 1.9235 22.5751 -5.5232 3.3687 161.6640 -4.9421 0.0155 0.6459 -2.6442 -1.7444 -0.1426 6.6829 -6.6287 8.0508 -0.1073 -0.0642 2.3019 -5.8362 -4.9932 -2.5886 15.8130 -2.1515 -9.5474 -12.9296 1.7136 -3.4950 -26.8299 -4.7135 35.6473 -0.0001 0.0001 124.9458 -13.1799 7.8883 16.6129 -0.0000 -0.0000 0.0000 0.0000 -0.0000 -0.0000 -12.5152 1.9572 3.8742 -21.0211 -7.7414 -32.3389 -0.0000 0.0000 5.1586 -0.0911 -3.8039 8.4741 -0.0000 -0.0000 0.0000 -0.0000 -0.0000 -0.0000 -18.4950 28.2244 6.3831 14.8707 0.0000 0.0000 -3.4916 -27.7288 16.4963 3.9603 0.0000 0.0000 5.4512 -23.0728 16.1770 -0.4971 0.0000 -0.0000 -6.8758 26.9962 10.2388 1.5592 0.0000 0.0000
 -11.5881 1.8987 22.5666 -5.3526 3.2372 161.5591 -4.6295 -0.1336 0.6333 -2.3651 -1.9394 -0.1470 6.2460 -6.3283 8.5002 -0.1558 -0.0851 2.4173 -5.6363 -4.9924 -2.5699 15.7462 -2.1746 -9.5359 -12.9301 2.1676 -3.4443 -26.3471 -4.7130 35.1611 -0.0001 0.0001 125.1570 -12.7828 8.0126 16.7154 -0.0000 -0.0000 -0.0000 -0.0000 0.0000 0.0000 -12.4790 1.7873 3.9497 -21.2199 -7.8215 -32.4605 -0.0000 0.0000 5.0132 -0.2913 -3.8263 8.3119 -0.0000 0.0000 0.0000 0.0000 0.0000 0.0000 -18.8897 27.9743 6.7439 15.8217 0.0000 0.0000 -3.9661 -27.6929 16.4888 3.9754 0.0000 0.0000 5.4364 -23.3067 16.8791 -0.0262 0.0000 -0.0000 -6.7035 27.0824 9.5740 1.5212 0.0000 0.0000
 -11.5514 1.8782 22.5519 -5.2198 3.1039 161.6983 -4.2042 -0.1428 0.6146 -2.0138 -2.0453 -0.1548 5.5780 -6.2479 8.6744 -0.2950 -0.1491 2.4598 -5.3459 -5.1169 -2.4861 15.4514 -2.0976 -9.5111 -12.6880 2.4625 -3.5427 -26.3162 -4.5848 34.9857 -0.0001 0.0001 125.3453 -12.6385 8.1291 16.6296 -0.0000 -0.0000 -0.0000 0.0000 -0.0000 0.0000 -12.3523 1.6590 4.1023 -21.4115 -8.1924 -32.4000 -0.0000 0.0000 4.8619 -0.5710 -3.8989 8.5441 -0.0000 -0.0000 0.0000 0.0000 -0.0000 0.0000 -19.2563 27.6931 7.4903 16.9550 0.0000 0.0000 -4.8677 -27.6375 15.7556 3.9863 0.0000 0.0000 5.2748 -23.5705 17.1032 0.4199 0.0000 0.0000 -6.5261 27.0088 8.9913 1.4941 0.0000 0.0000
 -11.5289 1.8794 22.5388 -5.1857 3.1572 161.8579 -4.0063 -0.2016 0.5622 -1.8186 -2.1531 -0.1644 5.0076 -6.0290 8.7336 -0.3257 -0.1960 2.4608 -4.9200 -5.3174 -2.3454 15.1801 -2.0294 -9.4481 -12.5161 3.1221 -3.4918 -26.2961 -5.0283 34.5360 -0.0001 0.0001 125.8017 -12.5652 8.0535 16.1608 0.0000 0.0000 0.0000 0.0000 -0.0000 0.0000 -12.2630 1.2196 3.9826 -21.4233 -8.4367 -31.6515 -0.0000 0.0000 4.7373 -0.7067 -4.1164 8.9529 0.0000 -0.0000 0.0000 -0.0000 -0.0000 0.0000 -19.7365 27.6640 7.8012 18.0286 0.0000 0.0000 -5.4953 -27.4441 15.4965 3.9174 0.0000 0.0000 5.2978 -23.5664 16.5614 0.2964 0.0000 0.0000 -6.6118 26.9220 9.3035 1.5795 0.0000 0.0000
 -11.5306 1.9005 22.5296 -4.9752 3.6092 161.9706 -3.9560 -0.1772 0.5251 -1.7040 -2.2904 -0.1586 4.6871 -5.3915 8.9556 -0.2380 -0.2890 2.5486 -4.6317 -5.8133 -2.3913 15.2222 -1.8315 -9.5699 -12.7565 3.9884 -3.5336 -26.1788 -5.5439 33.8018 -0.0001 0.0001 126.1947 -12.8049 8.2540 15.7867 -0.0000 -0.0000 0.0000 0.0000 -0.0000 -0.0000 -12.1534 0.4661 3.4530 -21.1716 -8.3203 -30.5240 -0.0000 0.0000 4.4829 -0.6149 -4.4620 8.8038 0.0000 -0.0000 -0.0000 -0.0000 -0.0000 -0.0000 -20.2543 28.3032 7.3054 19.0669 0.0000 0.0000 -5.5585 -27.2755 16.4373 3.8288 0.0000 0.0000 5.6028 -22.9794 15.8941 -0.2095 0.0000 -0.0000 -6.7160 26.8472 10.0480 1.7165 0.0000 0.0000
 -11.5558 1.9273 22.5110 -4.1860 4.3144 162.3895 -3.4355 0.1380 0.5473 -1.3483 -2.3592 -0.1266 4.2342 -4.6359 9.1605 -0.2480 -0.4869 2.6832 -4.4526 -6.6700 -2.6842 15.4170 -1.3827 -10.0301 -13.0645 4.6839 -3.9468 -26.3573 -5.3819 33.2019 -0.0001 0.0001 126.0639 -13.4130 9.0771 15.9977 -0.0000 0.0000 0.0000 0.0000 -0.0000 -0.0000 -11.7062 -0.2778 2.8251 -21.3208 -7.6283 -29.8452 -0.0000 0.0000 4.2190 -0.4714 -4.8556 8.4304 -0.0000 -0.0000 0.0000 -0.0000 0.0000 -0.0000 -20.2799 29.5557 6.7560 20.3228 0.0000 0.0000 -5.8586 -27.2001 17.3431 3.7592 0.0000 0.0000 5.9355 -21.9777 15.6709 -0.2630 0.0000 -0.0000 -6.4885 26.7465 9.7562 1.7810 0.0000 0.0000
 -11.5843 1.9629 22.4778 -3.1189 4.9610 163.2335 -2.5919 0.4643 0.5517 -0.8832 -2.4355 -0.1243 3.5240 -4.0516 8.9864 -0.3645 -0.6617 2.6625 -3.6534 -7.5927 -2.8560 15.5560 -0.8825 -10.5025 -12.8424 5.3463 -4.2288 -26.5766 -5.2558 32.7753 -0.0001 0.0001 125.9199 -13.7118 9.7149 16.3286 0.0000 -0.0000 0.0000 -0.0000 -0.0000 0.0000 -10.9426 -0.9435 2.3087 -22.2876 -6.0709 -29.4758 -0.0000 0.0000 4.2978 -0.2786 -5.2152 8.7117 -0.0000 -0.0000 0.0000 0.0000 -0.0000 -0.0000 -19.7932 30.6738 7.4808 21.8480 0.0000 0.0000 -7.3566 -27.0176 16.2405 3.6175 0.0000 0.0000 6.1046 -21.0835 15.5669 0.1959 0.0000 0.0000 -6.1715 26.7388 8.4238 1.8675 0.0000 0.0000
 -11.5809 2.0243 22.4447 -2.4202 5.5739 163.9740 -2.4653 0.4396 0.4696 -0.8668 -2.4387 -0.1375 3.2213 -3.7684 8.5214 -0.2570 -0.6630 2.5099 -1.7575 -8.3588 -2.5907 15.9140 -0.5399 -10.6446 -12.1758 6.0686 -3.8070 -25.8231 -6.3038 32.5819 -0.0001 0.0001 126.6824 -13.0472 9.1109 15.9958 -0.0000 -0.0000 -0.0000 0.0000 -0.0000 -0.0000 -10.4027 -1.5525 1.7545 -23.1805 -3.8640 -28.6362 -0.0000 0.0000 4.6854 0.2405 -5.4404 9.1991 -0.0000 -0.0000 -0.0000 0.0000 -0.0000 -0.0000 -19.6810 31.0663 10.2339 23.6892 0.0000 0.0000 -10.0591 -26.6972 12.8501 3.3957 0.0000 0.0000 6.3853 -20.3668 15.0257 0.1677 0.0000 0.0000 -6.0972 26.9394 7.9150 2.0901 0.0000 0.0000
 -11.5231 2.0981 22.3996 -1.9119 6.5417 164.1398 -3.2215 0.5028 0.4276 -1.3095 -2.2764 -0.1174 3.8170 -3.5514 8.2293 0.2051 -0.7223 2.5050 0.3382 -9.1217 -2.2084 16.7083 -0.2622 -10.6246 -11.7812 6.2455 -3.2219 -23.5889 -7.9165 33.4077 -0.0001 0.0001 127.9286 -11.6754 7.6380 15.1955 -0.0000 -0.0000 0.0000 -0.0000 -0.0000 0.0000 -10.4170 -1.9581 1.2092 -23.2008 -1.5962 -27.8152 -0.0000 0.0000 5.0764 1.0198 -5.3789 8.8634 -0.0000 -0.0000 -0.0000 -0.0000 -0.0000 0.0000 -20.7181 31.2111 14.1871 26.5096 0.0000 0.0000 -13.2354 -26.6011 9.2610 3.2605 0.0000 0.0000 7.0197 -19.3319 14.1654 -0.4615 0.0000 -0.0000 -6.1434 27.2090 8.9571 2.3411 0.0000 0.0000
 -11.4053 2.1379 22.2806 -0.6520 7.8583 163.9355 -3.4536 1.2294 0.5592 -1.4674 -1.9837 -0.0382 4.7895 -3.1933 8.2218 0.6425 -1.1325 2.7633 1.1362 -9.7957 -2.1728 17.3282 -0.0248 -10.6013 -11.7351 5.3227 -3.4365 -21.1429 -8.4038 35.7137 -0.0001 0.0001 127.8747 -10.5417 6.9117 15.0775 -0.0000 0.0000 -0.0000 -0.0000 0.0000 0.0000 -10.6434 -2.3345 1.1274 -23.2400 0.6100 -28.2951 -0.0000 0.0000 5.6713 1.4836 -5.0842 8.3103 -0.0000 -0.0000 0.0000 -0.0000 0.0000 0.0000 -22.5284 31.8552 17.2930 31.0190 0.0000 0.0000 -16.2111 -26.7835 7.9412 3.2276 0.0000 0.0000 7.7414 -18.0458 13.9055 0.0236 0.0000 0.0000 -6.3163 27.8010 9.3509 2.7349 0.0000 0.0000
